<svg version="1.2" xmlns="http://www.w3.org/2000/svg" viewBox="0 0 4976 1526" width="4976" height="1526">
	<title>logo-svg</title>
	<defs>
		<linearGradient id="g1" x2="1" gradientUnits="userSpaceOnUse" gradientTransform="matrix(14.23,775.48,-976.49,17.918,660.955,360.397)">
			<stop offset="0" stop-color="#00bcfa"/>
			<stop offset="1" stop-color="#e53625"/>
		</linearGradient>
		<linearGradient id="g2" x2="1" gradientUnits="userSpaceOnUse" gradientTransform="matrix(14.23,775.48,-976.49,17.918,660.955,360.397)">
			<stop offset="0" stop-color="#00bcfa"/>
			<stop offset="1" stop-color="#e53625"/>
		</linearGradient>
	</defs>
	<style>
		.s0 { fill: none } 
		.s1 { fill: #ffffff } 
		.s2 { fill: url(#g1) } 
		.s3 { fill: url(#g2) } 
	</style>
	<g id="Layer_x0020_1">
		<path id="Layer" class="s0" d="m-48.5-134h5024.3v1825.9h-5024.3z"/>
		<path id="Layer" fill-rule="evenodd" class="s1" d="m1592.5 947.1l-43 1.6c-28.9 1.1-72.1-0.8-93.8-23.2-12.5-12.9-15.5-32.7-15.5-50v-241.7h-53.6v-61.9h53.6v-107.4h89.8v107.4h62.5v61.9h-62.5v208.2c0 9.2 0.4 26.2 7.5 33.1 7.4 7.2 30.5 7.2 40.2 7.2 3.2 0 6.5-0.1 9.8-0.2q2.5-0.1 5-0.2zm296.8-294.5q0 0 0 0zm0 0q-5.8-0.6-11.7-0.9c-4.1-0.2-8.2-0.4-12.3-0.4-34.8 0-68.7 9.6-85.9 42.2-10.5 19.8-12.2 48.9-12.2 70.9v179h-91.5v-375h86.2v79.6l9.1-15c10.1-16.7 24.5-38.8 39.6-51.3 20-16.6 44.6-22.6 70.2-22.6q2.2 0 4.4 0.2 2 0.2 4.1 0.3zm355.7 248.7l-3.8 4.4c-10.7 5.3-22.5 10.2-33.3 15.1q-11.9 5.3-23.9 10.5c-4.3 1.9-9.4 4.3-13.8 5.7-17.6 5.7-36.7 7.5-55.1 7.5-49.1 0-97.2-12.7-121.6-58.7-14.8-27.8-17.7-66.9-17.7-97.8v-226.9h92.4l-1.3 226.9c-0.3 42.8 24.9 82.7 71.5 82.7 33.5 0 78.5-10.5 94.7-43.4 9.1-18.5 11.3-41.4 11.3-61.8v-204.4h90l-0.1 375h-68.6c0 0-20.7-34.8-20.7-34.8zm376 53.9c-274.5 0-268.6-404.8-1.5-404.8 55.9 0 107.9 21.8 145.4 63.3 38.6 42.7 55.6 99.7 54.2 156.6l-313-0.2c6.8 87.4 133 145.1 200.9 52.2l97.8 1.5c-19.7 65.5-98.9 131.4-183.8 131.4zm-115.3-246.8l223.7 1.1c-35-121.4-190.3-118.7-223.7-1.1zm1589.4 235v-224.2c0-15.6-0.9-37.5-7.5-51.9-10.2-22.4-30.3-30.8-54.2-30.8-25.2 0-49.9 6.9-62.3 30.6-7.4 14-8.7 34-8.7 49.5v226.8h-92.2v-374.4h88v68.4l9.1-14.6c8.8-14.2 20.7-31.1 34-41.4 21-16.1 46.9-21.6 73-21.6 23.8 0 48.5 4.3 68.3 18.4 14.4 11.9 24.7 26.9 31.7 44.2l3.8 9.3 5-8.6c11.6-19.9 26.9-36.9 47.1-48 20.9-10.6 43.5-15.3 66.9-15.3 16.7 0 32.8 3.4 48.3 9.5 17.2 6.9 31.3 18.9 42.9 33.2 11.1 13.7 17.5 30.1 20.9 47.3 3.1 17.7 3.5 37.9 3.4 55.9l-0.7 237.7h-93.2v-240.1c0-12.9-1.8-26.6-7.7-38.3-10.7-21.4-30.6-29.6-53.8-29.6-28.2 0-50.2 11.4-62.1 37.5-6.5 14.4-8.5 30.6-8.5 46.3v224.2h-91.5zm496.6-113.8c1.9 12.7 5.8 27.3 14.5 36.6 17.2 18.6 49 21.7 72.9 21.7 16.3 0 34.5-1.9 49.3-9.3 12.6-6.4 20.2-16.6 20.2-30.9 0-13-5.6-23.1-16.6-30-8.3-5.2-25-9.7-34.5-12.4-23.7-6.9-47.8-12.8-71.8-18.6-28.9-7-67.3-19.1-89.9-39.5-19-17-25.3-40.6-25.3-65.5 0-35.3 14.3-64.2 40.3-88 31.1-28.5 73.3-37 114.4-37 39.4 0 81.1 6.3 115 27.8 31.8 20.1 44.8 54.7 49.1 90.5h-90.9c-1.6-10.3-4.9-20.6-11.4-28.9-14.5-17.9-38.5-22.3-60.4-22.3-15.6 0-36.6 1.6-49.6 11.2-9.4 6.9-16 16-16 28 0 13.1 5.8 23.3 17.4 29.4 8.8 4.9 24.9 8.8 34.7 11.3 23.6 6.2 47.6 11.7 71.4 17 30.8 7 64.6 19.2 87.7 41.6 19.4 18.7 28.2 41.9 28.2 68.7 0 36.3-13.2 66.2-40.9 89.7-33.8 28.7-85.6 35-128.3 35-44 0-96.4-6.7-130.8-37-27-23.8-40.4-53.7-41.5-89.1h92.8zm-1004.8 127.4c-274.6 0-268.7-404.9-1.6-404.9 55.9 0 107.9 21.9 145.4 63.4 38.6 42.7 55.7 99.7 54.3 156.6l-313.1-0.3c6.8 87.5 133 145.1 200.9 52.3l97.9 1.5c-19.8 65.5-99 131.4-183.8 131.4zm-115.4-246.8l223.7 1.1c-34.9-121.5-190.3-118.7-223.7-1.1zm-552.6 208.2c-24.4-35.7-26.5-69.5 38-113.1-36.5-22.7-54.7-59.6-55.9-108.9-2-87.8 78.5-135.2 175.2-135.2q4.8 0 9.4 0.1l212.9-0.2-25.2 61.3h-47.8c16.4 20.5 25.9 45.5 25.9 74 0 118.3-138.2 154.1-235 130.6-30.5 28.8-16.8 43 7.6 49.9 87.5-8.6 266.3 10.8 275.1 128.3 1.2 15.6-3.7 29-9.7 41.5-17.3 35.5-83.1 86-207 88.9-154 3.7-216.3-85.6-216.2-130.3 0.1-44.7 22.9-65.1 52.7-86.9zm69.4-221c0 41.3 37 74.9 82.7 74.9 45.7 0 82.7-33.6 82.7-74.9 0-41.4-37-75-82.7-75-45.7 0-82.7 33.6-82.7 75zm-24.7 306.1c-0.6 46.1 53.2 62 118.8 62 65.6 0 118.1-15.9 118.7-62 0.6-46.1-53.1-62-118.7-62-65.6 0-118.2 15.9-118.8 62z"/>
		<path id="Layer" fill-rule="evenodd" class="s2" d="m1006.9 339.3h2.1l228.8 250h-91.3l-169-185.4zm-658.4-14.3l629.9 1.3-30.6 64.6-568.6-1.2zm-31.2 12.9h1.1l30.2 64.7-169 186.7h-92.6c0 0 230.3-251.4 230.3-251.4zm329.5 895.1l-554.5-612.5h88.1l466.4 553.9zm589.6-612.5l-558.5 612.4v-58.2l471.9-554.2zm-1022.8 1h430.6v511.3l-46.1-54.8v-410.5h-345.7zm465.9 57.1v-57.1h429.7l-39.2 46.1h-344.4v409.8l-46.9 54.9 0.8-453.7c0 0 0 0 0 0zm-469.7-89.2c0 0 41.7-46.1 41.7-46.1h812.3l42 46.1z"/>
		<path id="Layer" class="s0" d="m-48.5-134h5024.3v1825.9h-5024.3z"/>
		<path id="Layer" fill-rule="evenodd" class="s1" d="m1592.5 947.1l-43 1.6c-28.9 1.1-72.1-0.8-93.8-23.2-12.5-12.9-15.5-32.7-15.5-50v-241.7h-53.6v-61.9h53.6v-107.4h89.8v107.4h62.5v61.9h-62.5v208.2c0 9.2 0.4 26.2 7.5 33.1 7.4 7.2 30.5 7.2 40.2 7.2 3.2 0 6.5-0.1 9.8-0.2q2.5-0.1 5-0.2zm296.8-294.5q0 0 0 0zm0 0q-5.8-0.6-11.7-0.9c-4.1-0.2-8.2-0.4-12.3-0.4-34.8 0-68.7 9.6-85.9 42.2-10.5 19.8-12.2 48.9-12.2 70.9v179h-91.5v-375h86.2v79.6l9.1-15c10.1-16.7 24.5-38.8 39.6-51.3 20-16.6 44.6-22.6 70.2-22.6q2.2 0 4.4 0.2 2 0.2 4.1 0.3zm355.7 248.7l-3.8 4.4c-10.7 5.3-22.5 10.2-33.3 15.1q-11.9 5.3-23.9 10.5c-4.3 1.9-9.4 4.3-13.8 5.7-17.6 5.7-36.7 7.5-55.1 7.5-49.1 0-97.2-12.7-121.6-58.7-14.8-27.8-17.7-66.9-17.7-97.8v-226.9h92.4l-1.3 226.9c-0.3 42.8 24.9 82.7 71.5 82.7 33.5 0 78.5-10.5 94.7-43.4 9.1-18.5 11.3-41.4 11.3-61.8v-204.4h90l-0.1 375h-68.6c0 0-20.7-34.8-20.7-34.8zm376 53.9c-274.5 0-268.6-404.8-1.5-404.8 55.9 0 107.9 21.8 145.4 63.3 38.6 42.7 55.6 99.7 54.2 156.6l-313-0.2c6.8 87.4 133 145.1 200.9 52.2l97.8 1.5c-19.7 65.5-98.9 131.4-183.8 131.4zm-115.3-246.8l223.7 1.1c-35-121.4-190.3-118.7-223.7-1.1zm1589.4 235v-224.2c0-15.6-0.9-37.5-7.5-51.9-10.2-22.4-30.3-30.8-54.2-30.8-25.2 0-49.9 6.9-62.3 30.6-7.4 14-8.7 34-8.7 49.5v226.8h-92.2v-374.4h88v68.4l9.1-14.6c8.8-14.2 20.7-31.1 34-41.4 21-16.1 46.9-21.6 73-21.6 23.8 0 48.5 4.3 68.3 18.4 14.4 11.9 24.7 26.9 31.7 44.2l3.8 9.3 5-8.6c11.6-19.9 26.9-36.9 47.1-48 20.9-10.6 43.5-15.3 66.9-15.3 16.7 0 32.8 3.4 48.3 9.5 17.2 6.9 31.3 18.9 42.9 33.2 11.1 13.7 17.5 30.1 20.9 47.3 3.1 17.7 3.5 37.9 3.4 55.9l-0.7 237.7h-93.2v-240.1c0-12.9-1.8-26.6-7.7-38.3-10.7-21.4-30.6-29.6-53.8-29.6-28.2 0-50.2 11.4-62.1 37.5-6.5 14.4-8.5 30.6-8.5 46.3v224.2h-91.5zm496.6-113.8c1.9 12.7 5.8 27.3 14.5 36.6 17.2 18.6 49 21.7 72.9 21.7 16.3 0 34.5-1.9 49.3-9.3 12.6-6.4 20.2-16.6 20.2-30.9 0-13-5.6-23.1-16.6-30-8.3-5.2-25-9.7-34.5-12.4-23.7-6.9-47.8-12.8-71.8-18.6-28.9-7-67.3-19.1-89.9-39.5-19-17-25.3-40.6-25.3-65.5 0-35.3 14.3-64.2 40.3-88 31.1-28.5 73.3-37 114.4-37 39.4 0 81.1 6.3 115 27.8 31.8 20.1 44.8 54.7 49.1 90.5h-90.9c-1.6-10.3-4.9-20.6-11.4-28.9-14.5-17.9-38.5-22.3-60.4-22.3-15.6 0-36.6 1.6-49.6 11.2-9.4 6.9-16 16-16 28 0 13.1 5.8 23.3 17.4 29.4 8.8 4.9 24.9 8.8 34.7 11.3 23.6 6.2 47.6 11.7 71.4 17 30.8 7 64.6 19.2 87.7 41.6 19.4 18.7 28.2 41.9 28.2 68.7 0 36.3-13.2 66.2-40.9 89.7-33.8 28.7-85.6 35-128.3 35-44 0-96.4-6.7-130.8-37-27-23.8-40.4-53.7-41.5-89.1h92.8zm-1004.8 127.4c-274.6 0-268.7-404.9-1.6-404.9 55.9 0 107.9 21.9 145.4 63.4 38.6 42.7 55.7 99.7 54.3 156.6l-313.1-0.3c6.8 87.5 133 145.1 200.9 52.3l97.9 1.5c-19.8 65.5-99 131.4-183.8 131.4zm-115.4-246.8l223.7 1.1c-34.9-121.5-190.3-118.7-223.7-1.1zm-552.6 208.2c-24.4-35.7-26.5-69.5 38-113.1-36.5-22.7-54.7-59.6-55.9-108.9-2-87.8 78.5-135.2 175.2-135.2q4.8 0 9.4 0.1l212.9-0.2-25.2 61.3h-47.8c16.4 20.5 25.9 45.5 25.9 74 0 118.3-138.2 154.1-235 130.6-30.5 28.8-16.8 43 7.6 49.9 87.5-8.6 266.3 10.8 275.1 128.3 1.2 15.6-3.7 29-9.7 41.5-17.3 35.5-83.1 86-207 88.9-154 3.7-216.3-85.6-216.2-130.3 0.1-44.7 22.9-65.1 52.7-86.9zm69.4-221c0 41.3 37 74.9 82.7 74.9 45.7 0 82.7-33.6 82.7-74.9 0-41.4-37-75-82.7-75-45.7 0-82.7 33.6-82.7 75zm-24.7 306.1c-0.6 46.1 53.2 62 118.8 62 65.6 0 118.1-15.9 118.7-62 0.6-46.1-53.1-62-118.7-62-65.6 0-118.2 15.9-118.8 62z"/>
		<path id="Layer" fill-rule="evenodd" class="s3" d="m1006.9 339.3h2.1l228.8 250h-91.3l-169-185.4zm-658.4-14.3l629.9 1.3-30.6 64.6-568.6-1.2zm-31.2 12.9h1.1l30.2 64.7-169 186.7h-92.6c0 0 230.3-251.4 230.3-251.4zm329.5 895.1l-554.5-612.5h88.1l466.4 553.9zm589.6-612.5l-558.5 612.4v-58.2l471.9-554.2zm-1022.8 1h430.6v511.3l-46.1-54.8v-410.5h-345.7zm465.9 57.1v-57.1h429.7l-39.2 46.1h-344.4v409.8l-46.9 54.9 0.8-453.7c0 0 0 0 0 0zm-469.7-89.2c0 0 41.7-46.1 41.7-46.1h812.3l42 46.1z"/>
	</g>
</svg>